<mxfile host="65bd71144e">
    <diagram id="_JhuvCiUDTyiaV_7GWOC" name="第 1 页">
        <mxGraphModel dx="1075" dy="592" grid="1" gridSize="10" guides="1" tooltips="1" connect="1" arrows="1" fold="1" page="1" pageScale="1" pageWidth="827" pageHeight="1169" background="#ffffff" math="0" shadow="0">
            <root>
                <mxCell id="0"/>
                <mxCell id="1" parent="0"/>
                <mxCell id="59" value="" style="rounded=0;whiteSpace=wrap;html=1;fontSize=12;fontColor=#000000;strokeColor=#000000;fillColor=#FFFFFF;" vertex="1" parent="1">
                    <mxGeometry x="30" y="10" width="680" height="520" as="geometry"/>
                </mxCell>
                <mxCell id="30" value="&lt;font color=&quot;#000000&quot; style=&quot;font-size: 20px&quot;&gt;...&lt;/font&gt;" style="text;html=1;align=center;verticalAlign=middle;resizable=0;points=[];autosize=1;strokeColor=none;fillColor=none;" vertex="1" parent="1">
                    <mxGeometry x="509" y="251.00000000000003" width="30" height="20" as="geometry"/>
                </mxCell>
                <mxCell id="31" value="&lt;font style=&quot;font-size: 12px&quot;&gt;最近的DNS服务器&lt;/font&gt;" style="text;html=1;align=center;verticalAlign=middle;resizable=0;points=[];autosize=1;strokeColor=none;fillColor=none;fontSize=20;fontColor=#000000;" vertex="1" parent="1">
                    <mxGeometry x="40" y="108.56" width="110" height="30" as="geometry"/>
                </mxCell>
                <mxCell id="32" value="&lt;span style=&quot;font-size: 12px&quot;&gt;根域DNS服务器&lt;/span&gt;" style="text;html=1;align=center;verticalAlign=middle;resizable=0;points=[];autosize=1;strokeColor=none;fillColor=none;fontSize=20;fontColor=#000000;" vertex="1" parent="1">
                    <mxGeometry x="505" y="28.28" width="100" height="30" as="geometry"/>
                </mxCell>
                <mxCell id="38" value="" style="image;html=1;image=img/lib/clip_art/computers/iMac_128x128.png;fontSize=12;fontColor=#000000;strokeColor=#000000;fillColor=#FFFFFF;" vertex="1" parent="1">
                    <mxGeometry x="65" y="420" width="80" height="80" as="geometry"/>
                </mxCell>
                <mxCell id="39" value="" style="image;html=1;image=img/lib/clip_art/computers/Server_Rack_128x128.png;fontSize=12;fontColor=#000000;strokeColor=#000000;fillColor=#FFFFFF;" vertex="1" parent="1">
                    <mxGeometry x="70" y="145.56" width="80" height="80" as="geometry"/>
                </mxCell>
                <mxCell id="40" value="" style="image;html=1;image=img/lib/clip_art/computers/Server_Rack_128x128.png;fontSize=12;fontColor=#000000;strokeColor=#000000;fillColor=#FFFFFF;" vertex="1" parent="1">
                    <mxGeometry x="616" y="262.84000000000003" width="80" height="80" as="geometry"/>
                </mxCell>
                <mxCell id="41" value="" style="image;html=1;image=img/lib/clip_art/computers/Server_Rack_128x128.png;fontSize=12;fontColor=#000000;strokeColor=#000000;fillColor=#FFFFFF;" vertex="1" parent="1">
                    <mxGeometry x="250" y="262.84" width="80" height="80" as="geometry"/>
                </mxCell>
                <mxCell id="42" value="" style="image;html=1;image=img/lib/clip_art/computers/Server_Rack_128x128.png;fontSize=12;fontColor=#000000;strokeColor=#000000;fillColor=#FFFFFF;" vertex="1" parent="1">
                    <mxGeometry x="556" y="145.56" width="80" height="80" as="geometry"/>
                </mxCell>
                <mxCell id="43" value="" style="image;html=1;image=img/lib/clip_art/computers/Server_Rack_128x128.png;fontSize=12;fontColor=#000000;strokeColor=#000000;fillColor=#FFFFFF;" vertex="1" parent="1">
                    <mxGeometry x="318" y="145.56" width="80" height="80" as="geometry"/>
                </mxCell>
                <mxCell id="44" value="" style="image;html=1;image=img/lib/clip_art/computers/Server_Rack_128x128.png;fontSize=12;fontColor=#000000;strokeColor=#000000;fillColor=#FFFFFF;" vertex="1" parent="1">
                    <mxGeometry x="440" y="37.28" width="80" height="80" as="geometry"/>
                </mxCell>
                <mxCell id="45" value="" style="image;html=1;image=img/lib/clip_art/computers/Server_Tower_128x128.png;fontSize=12;fontColor=#000000;strokeColor=#000000;fillColor=#FFFFFF;" vertex="1" parent="1">
                    <mxGeometry x="250" y="420" width="80" height="80" as="geometry"/>
                </mxCell>
                <mxCell id="49" value="" style="shape=flexArrow;endArrow=classic;startArrow=classic;html=1;fontSize=12;fontColor=#000000;strokeColor=none;fillColor=#999999;width=5;startWidth=10;startSize=6;endWidth=10;endSize=6;" edge="1" parent="1" source="39" target="44">
                    <mxGeometry width="100" height="100" relative="1" as="geometry">
                        <mxPoint x="370" y="280" as="sourcePoint"/>
                        <mxPoint x="470" y="180" as="targetPoint"/>
                        <Array as="points">
                            <mxPoint x="230" y="77"/>
                        </Array>
                    </mxGeometry>
                </mxCell>
                <mxCell id="50" value="" style="shape=flexArrow;endArrow=classic;startArrow=classic;html=1;fontSize=12;fontColor=#000000;strokeColor=none;fillColor=#999999;width=5;startWidth=10;startSize=6;endWidth=10;endSize=6;entryX=0;entryY=0.5;entryDx=0;entryDy=0;" edge="1" parent="1">
                    <mxGeometry width="100" height="100" relative="1" as="geometry">
                        <mxPoint x="147" y="180" as="sourcePoint"/>
                        <mxPoint x="315" y="180.27999999999997" as="targetPoint"/>
                        <Array as="points"/>
                    </mxGeometry>
                </mxCell>
                <mxCell id="51" value="" style="shape=flexArrow;endArrow=classic;startArrow=classic;html=1;fontSize=12;fontColor=#000000;strokeColor=none;fillColor=#999999;width=5;startWidth=10;startSize=6;endWidth=10;endSize=6;exitX=0.75;exitY=1;exitDx=0;exitDy=0;entryX=0;entryY=0.5;entryDx=0;entryDy=0;" edge="1" parent="1" source="39" target="41">
                    <mxGeometry width="100" height="100" relative="1" as="geometry">
                        <mxPoint x="170" y="169.37333333333333" as="sourcePoint"/>
                        <mxPoint x="460" y="97.23519999999996" as="targetPoint"/>
                        <Array as="points">
                            <mxPoint x="170" y="303"/>
                        </Array>
                    </mxGeometry>
                </mxCell>
                <mxCell id="52" value="" style="strokeWidth=2;html=1;shape=mxgraph.flowchart.annotation_2;align=left;labelPosition=right;pointerEvents=1;fontSize=12;fontColor=#000000;fillColor=#000000;strokeColor=#000000;direction=south;" vertex="1" parent="1">
                    <mxGeometry x="360" y="123" width="240" height="15.56" as="geometry"/>
                </mxCell>
                <mxCell id="53" value="" style="strokeWidth=2;html=1;shape=mxgraph.flowchart.annotation_2;align=left;labelPosition=right;pointerEvents=1;fontSize=12;fontColor=#000000;fillColor=#000000;strokeColor=#000000;direction=south;" vertex="1" parent="1">
                    <mxGeometry x="290" y="234" width="140" height="15.56" as="geometry"/>
                </mxCell>
                <mxCell id="54" value="" style="strokeWidth=2;html=1;shape=mxgraph.flowchart.annotation_2;align=left;labelPosition=right;pointerEvents=1;fontSize=12;fontColor=#000000;fillColor=#000000;strokeColor=#000000;direction=south;" vertex="1" parent="1">
                    <mxGeometry x="526" y="234" width="134" height="15.56" as="geometry"/>
                </mxCell>
                <mxCell id="55" value="&lt;font color=&quot;#000000&quot; style=&quot;font-size: 20px&quot;&gt;...&lt;/font&gt;" style="text;html=1;align=center;verticalAlign=middle;resizable=0;points=[];autosize=1;strokeColor=none;fillColor=none;" vertex="1" parent="1">
                    <mxGeometry x="414" y="250.00000000000003" width="30" height="20" as="geometry"/>
                </mxCell>
                <mxCell id="56" value="" style="verticalLabelPosition=bottom;verticalAlign=top;html=1;strokeWidth=2;shape=mxgraph.arrows2.arrow;dy=0.6;dx=40;notch=0;fontSize=12;fontColor=#000000;fillColor=#000000;direction=south;" vertex="1" parent="1">
                    <mxGeometry x="283.5" y="345.84" width="12.5" height="77.16" as="geometry"/>
                </mxCell>
                <mxCell id="57" value="" style="shape=flexArrow;endArrow=classic;startArrow=none;html=1;fontSize=12;fontColor=#000000;strokeColor=none;fillColor=#999999;width=5;startWidth=10;startSize=6;endWidth=10;endSize=6;" edge="1" parent="1" source="72">
                    <mxGeometry width="100" height="100" relative="1" as="geometry">
                        <mxPoint x="145" y="450" as="sourcePoint"/>
                        <mxPoint x="255" y="450" as="targetPoint"/>
                        <Array as="points"/>
                    </mxGeometry>
                </mxCell>
                <mxCell id="58" value="" style="shape=flexArrow;endArrow=classic;startArrow=none;html=1;fontSize=12;fontColor=#000000;strokeColor=none;fillColor=#999999;width=5;startWidth=10;startSize=6;endWidth=10;endSize=6;" edge="1" parent="1" source="83">
                    <mxGeometry width="100" height="100" relative="1" as="geometry">
                        <mxPoint x="106" y="413" as="sourcePoint"/>
                        <mxPoint x="106" y="233" as="targetPoint"/>
                        <Array as="points"/>
                    </mxGeometry>
                </mxCell>
                <mxCell id="60" value="com" style="text;html=1;strokeColor=none;fillColor=none;align=center;verticalAlign=middle;whiteSpace=wrap;rounded=0;fontSize=12;fontColor=#000000;" vertex="1" parent="1">
                    <mxGeometry x="370" y="160" width="60" height="30" as="geometry"/>
                </mxCell>
                <mxCell id="61" value="cn" style="text;html=1;strokeColor=none;fillColor=none;align=center;verticalAlign=middle;whiteSpace=wrap;rounded=0;fontSize=12;fontColor=#000000;" vertex="1" parent="1">
                    <mxGeometry x="605" y="160" width="60" height="30" as="geometry"/>
                </mxCell>
                <mxCell id="63" value="baidu" style="text;html=1;strokeColor=none;fillColor=none;align=center;verticalAlign=middle;whiteSpace=wrap;rounded=0;fontSize=12;fontColor=#000000;" vertex="1" parent="1">
                    <mxGeometry x="302" y="287.84000000000003" width="60" height="30" as="geometry"/>
                </mxCell>
                <mxCell id="64" value="&lt;font color=&quot;#000000&quot; style=&quot;font-size: 20px&quot;&gt;...&lt;/font&gt;" style="text;html=1;align=center;verticalAlign=middle;resizable=0;points=[];autosize=1;strokeColor=none;fillColor=none;" vertex="1" parent="1">
                    <mxGeometry x="600" y="292.84" width="30" height="20" as="geometry"/>
                </mxCell>
                <mxCell id="65" value="目标服务器" style="text;html=1;strokeColor=none;fillColor=none;align=center;verticalAlign=middle;whiteSpace=wrap;rounded=0;fontSize=12;fontColor=#000000;" vertex="1" parent="1">
                    <mxGeometry x="318" y="438" width="70" height="30" as="geometry"/>
                </mxCell>
                <mxCell id="67" value="1" style="ellipse;whiteSpace=wrap;html=1;aspect=fixed;fontSize=12;fontColor=#000000;strokeColor=#000000;fillColor=#FFFFFF;" vertex="1" parent="1">
                    <mxGeometry x="95" y="254.78" width="20" height="20" as="geometry"/>
                </mxCell>
                <mxCell id="73" value="6" style="ellipse;whiteSpace=wrap;html=1;aspect=fixed;fontSize=12;fontColor=#000000;strokeColor=#000000;fillColor=#FFFFFF;" vertex="1" parent="1">
                    <mxGeometry x="207" y="291.84000000000003" width="20" height="20" as="geometry"/>
                </mxCell>
                <mxCell id="74" value="4" style="ellipse;whiteSpace=wrap;html=1;aspect=fixed;fontSize=12;fontColor=#000000;strokeColor=#000000;fillColor=#FFFFFF;" vertex="1" parent="1">
                    <mxGeometry x="272" y="169.56" width="20" height="20" as="geometry"/>
                </mxCell>
                <mxCell id="75" value="2" style="ellipse;whiteSpace=wrap;html=1;aspect=fixed;fontSize=12;fontColor=#000000;strokeColor=#000000;fillColor=#FFFFFF;" vertex="1" parent="1">
                    <mxGeometry x="396" y="66" width="20" height="20" as="geometry"/>
                </mxCell>
                <mxCell id="78" value="3" style="ellipse;whiteSpace=wrap;html=1;aspect=fixed;fontSize=12;fontColor=#000000;strokeColor=#000000;fillColor=#FFFFFF;" vertex="1" parent="1">
                    <mxGeometry x="164" y="116.56" width="20" height="20" as="geometry"/>
                </mxCell>
                <mxCell id="80" value="5" style="ellipse;whiteSpace=wrap;html=1;aspect=fixed;fontSize=12;fontColor=#000000;strokeColor=#000000;fillColor=#FFFFFF;" vertex="1" parent="1">
                    <mxGeometry x="169" y="171" width="20" height="20" as="geometry"/>
                </mxCell>
                <mxCell id="81" value="7" style="ellipse;whiteSpace=wrap;html=1;aspect=fixed;fontSize=12;fontColor=#000000;strokeColor=#000000;fillColor=#FFFFFF;" vertex="1" parent="1">
                    <mxGeometry x="136" y="245" width="20" height="20" as="geometry"/>
                </mxCell>
                <mxCell id="83" value="8" style="ellipse;whiteSpace=wrap;html=1;aspect=fixed;fontSize=12;fontColor=#000000;strokeColor=#000000;fillColor=#FFFFFF;" vertex="1" parent="1">
                    <mxGeometry x="95" y="370" width="20" height="20" as="geometry"/>
                </mxCell>
                <mxCell id="84" value="" style="shape=flexArrow;endArrow=none;startArrow=classic;html=1;fontSize=12;fontColor=#000000;strokeColor=none;fillColor=#999999;width=5;startWidth=10;startSize=6;endWidth=10;endSize=6;" edge="1" parent="1" target="83">
                    <mxGeometry width="100" height="100" relative="1" as="geometry">
                        <mxPoint x="106" y="413" as="sourcePoint"/>
                        <mxPoint x="106" y="233" as="targetPoint"/>
                        <Array as="points"/>
                    </mxGeometry>
                </mxCell>
                <mxCell id="72" value="9" style="ellipse;whiteSpace=wrap;html=1;aspect=fixed;fontSize=12;fontColor=#000000;strokeColor=#000000;fillColor=#FFFFFF;" vertex="1" parent="1">
                    <mxGeometry x="212" y="438" width="20" height="20" as="geometry"/>
                </mxCell>
                <mxCell id="86" value="" style="shape=flexArrow;endArrow=none;startArrow=classic;html=1;fontSize=12;fontColor=#000000;strokeColor=none;fillColor=#999999;width=5;startWidth=10;startSize=6;endWidth=10;endSize=6;" edge="1" parent="1" target="72">
                    <mxGeometry width="100" height="100" relative="1" as="geometry">
                        <mxPoint x="145" y="450" as="sourcePoint"/>
                        <mxPoint x="255" y="450" as="targetPoint"/>
                        <Array as="points"/>
                    </mxGeometry>
                </mxCell>
                <mxCell id="87" value="10" style="ellipse;whiteSpace=wrap;html=1;aspect=fixed;fontSize=12;fontColor=#000000;strokeColor=#000000;fillColor=#FFFFFF;" vertex="1" parent="1">
                    <mxGeometry x="168" y="440" width="20" height="20" as="geometry"/>
                </mxCell>
            </root>
        </mxGraphModel>
    </diagram>
</mxfile>